<?xml version="1.0" encoding="UTF-8"?>
<svg width="217px" height="50px" viewBox="0 0 512 118" version="1.1" xmlns="http://www.w3.org/2000/svg" xmlns:xlink="http://www.w3.org/1999/xlink">
    <!-- Generator: Sketch 50.2 (55047) - http://www.bohemiancoding.com/sketch -->
    <title>logo</title>
    <desc>Created with Sketch.</desc>
    <defs></defs>
    <g id="Assets" stroke="none" stroke-width="1" fill="none" fill-rule="evenodd">
        <g id="assets" transform="translate(-147.000000, -70.000000)">
            <g id="logo" transform="translate(147.000000, 70.000000)">
                <rect id="Rectangle-2" x="1" y="0" width="217" height="50"></rect>
                <g id="shapes" fill="#DC262A">
                    <path d="M195.930743,104.660537 C195.453755,106.149029 194.811721,106.654438 193.199274,106.635947 C184.697717,106.537673 176.193764,106.537331 167.692207,106.637317 C166.120165,106.655808 165.567503,106.104514 165.103184,104.724569 C162.326515,96.4709235 159.456367,88.2484376 156.615324,80.016364 C156.452675,79.5451967 156.272906,79.0798505 155.851389,78.6114225 C155.825365,79.1808638 155.776399,79.7506476 155.776057,80.3200889 C155.770921,88.4805971 155.739418,96.6411053 155.804478,104.800929 C155.815435,106.190119 155.500753,106.646905 154.036915,106.625332 C148.160336,106.539385 142.281017,106.54144 136.40478,106.623963 C134.943682,106.644508 134.274939,106.335304 134.521823,104.766002 C134.635506,104.043157 134.540998,103.287783 134.540998,102.507412 C130.8737,105.765863 126.893775,107.048904 122.490963,107.346465 C119.171904,107.570406 115.861748,107.492677 112.627267,106.701349 C106.562015,105.217652 103.656597,100.878187 102.456422,95.0988542 C102.260216,94.1530954 102.147218,93.1843946 102.074283,92.2201452 C101.873626,89.5797592 101.890062,89.5903742 99.1531145,89.5773623 C97.2040707,89.5677746 95.2789961,89.7153568 93.4138447,90.3231489 C90.0519837,91.4185444 88.7877761,93.0679724 88.7268257,96.5894002 C88.6771751,99.441743 88.6703267,102.296825 88.7384679,105.148483 C88.7644917,106.225388 88.5162385,106.62636 87.3475656,106.616087 C81.1282255,106.559931 74.9075159,106.558903 68.6878334,106.616087 C67.4941639,106.627044 67.2897403,106.175737 67.2928221,105.119378 C67.3232973,93.8206074 67.328776,82.5214949 67.287001,71.2227247 C67.2825495,70.0352187 67.6037377,69.6791039 68.8093919,69.6924582 C74.4579209,69.753751 80.108162,69.7503269 85.7570335,69.6938279 C86.8873556,69.6828705 87.2434705,70.0098798 87.1986137,71.1306142 C87.1188303,73.1176665 87.1760141,75.109855 87.1760141,77.3639934 C87.9118706,76.7219594 87.9889147,76.0388353 88.2138834,75.4646002 C89.7092232,71.6432141 92.2999586,69.2414936 96.5288222,68.8463431 C98.5833308,68.6542465 100.623458,68.702185 102.67557,68.882297 C103.647352,68.9679015 103.88636,69.3873637 103.857597,70.2947716 C103.796989,72.2325157 103.839106,74.1733415 103.839106,76.7010719 C107.322868,70.7186853 112.666303,69.0942538 118.614447,68.875791 C124.50849,68.6590404 130.094699,69.5606272 134.541341,74.6119791 C134.541341,73.2313493 134.61633,72.2236128 134.521823,71.23197 C134.410194,70.0629546 134.764597,69.6862947 136.000384,69.6910885 C148.554459,69.7379998 161.109219,69.7376574 173.663294,69.689034 C174.782659,69.6845826 175.104532,70.1297261 175.334637,71.0768546 C176.908733,77.5499264 178.524946,84.0123833 180.121984,90.479634 C180.230531,90.9179292 180.258266,91.3812209 180.714025,91.8404035 C182.24977,85.2526216 183.772503,78.7555806 185.276061,72.254088 C185.860911,69.7243031 185.841051,69.7195092 188.398572,69.7195092 C194.162154,69.7195092 199.925735,69.7195092 205.689317,69.7198516 C207.827033,69.7198516 207.827033,69.7205365 207.088094,71.8000416 C206.773412,72.6855348 206.458045,73.5710281 206.005026,74.8437961 C212.492822,69.772584 219.739416,68.8819545 227.16715,68.7025275 C233.349166,68.5532332 239.451742,69.3452462 245.536511,70.3526403 C246.549384,70.5200828 246.882557,70.9255058 246.865778,71.8877007 C246.829824,73.9630968 246.854821,76.0398626 246.99624,78.1464187 C250.705655,72.1041089 256.341857,69.6917734 263.011134,69.0086492 C269.100355,68.3851059 275.182386,68.1998577 281.261677,69.0312488 C292.47313,70.5639123 298.492498,77.9611706 297.755957,89.23152 C297.31184,96.0240679 294.922789,101.643149 288.442869,104.819419 C285.701127,106.163068 282.77311,106.85441 279.763598,107.244424 C273.154928,108.100812 266.552422,108.084718 260.029357,106.665053 C254.483554,105.458029 249.80715,102.86113 246.855506,97.5166684 C246.855506,99.4694789 246.848657,101.422289 246.858587,103.3751 C246.862697,104.218476 246.784625,104.858455 245.728608,105.152592 C235.311564,108.053216 224.821586,108.5891 214.318595,105.854892 C207.066865,103.967141 202.775681,98.4634545 202.048042,90.7439808 C201.968944,89.9030019 201.885394,89.0627079 201.803556,88.2220714 C199.612765,93.6764494 197.698648,99.1448665 195.930743,104.660537 Z M135.028636,88.7332332 C134.985149,88.1083201 134.9896,87.4758739 134.889614,86.8602062 C134.401668,83.8565146 132.310863,81.9828027 129.308541,81.8218662 C126.16754,81.6533965 123.827797,83.1761298 123.097419,86.0377179 C122.505379,88.3552036 122.636867,90.6788528 123.657273,92.8853951 C124.632822,94.9960603 126.30485,96.0698835 128.639114,96.1486396 C131.028165,96.2294503 132.822778,95.3008124 133.97707,93.1737111 C134.731075,91.7841785 135.046784,90.3042474 135.028636,88.7332332 Z M232.365056,94.5693731 C235.78821,94.4570599 239.157262,93.8889883 242.526998,93.3479677 C245.6567,92.8449555 245.650879,92.8103713 245.375575,89.5724657 C245.356057,89.3454425 245.390641,89.105065 245.327294,88.8927658 C244.93591,87.5758257 246.127182,85.8027848 245.101298,85.0326865 C244.104176,84.2845029 242.379074,84.4834479 240.968311,84.3142933 C236.496331,83.7773817 232.014078,83.3651103 227.531825,84.1413722 C225.076687,84.5666555 223.45568,86.4201646 223.278307,88.7986008 C223.094771,91.2520265 224.365142,93.1486804 226.796996,94.0256131 C228.604621,94.6775772 230.488605,94.6207358 232.365056,94.5693731 Z M278.411217,88.2622028 C278.411217,87.7139915 278.430393,87.2578905 278.408135,86.8035017 C278.244802,83.4686918 276.114961,81.2679707 272.839732,81.0395778 C268.380764,80.7290046 265.861936,82.2493409 265.183606,85.7902865 C264.839476,87.5862695 264.870978,89.4151246 265.347967,91.2080258 C266.210175,94.4466162 268.365355,96.013179 271.896713,95.9696919 C275.3048,95.9279169 277.345955,94.2962946 278.118107,91.0446923 C278.344103,90.0934548 278.459498,89.1429022 278.411217,88.2622028 Z" id="Combined-Shape"></path>
                    <path d="M37.6273955,4.89168123 C50.8639097,24.9207433 63.9076425,44.6587501 77.1136815,64.6415857 C73.5881447,64.6415857 70.3587995,64.6415857 67.1297968,64.6415857 C63.6494592,64.6415857 60.1626157,64.5142062 56.6915234,64.6932909 C54.8517109,64.7884831 54.4254004,64.1440522 54.6212635,62.5086634 C54.7356312,61.552632 54.5894186,60.5678375 54.6551629,59.6025609 C54.7178254,58.6841956 54.3466442,58.4561451 53.4755325,58.4616238 C48.1125802,58.4951808 42.748943,58.4979201 37.3863331,58.4571724 C36.5843899,58.4513513 36.1402737,58.8584864 35.6554096,59.3447201 C32.2716339,62.7384259 28.8566982,66.1016565 25.5109309,69.5320011 C24.6076319,70.458242 24.2124815,70.7040982 23.6967998,69.2097856 C16.5176618,48.3945316 9.29229744,27.5953711 2.07789043,6.79244412 C1.46222268,5.01734867 0.889014771,3.22615957 0.210342091,1.47571823 C-0.169399586,0.496060036 0.148021996,0.286842575 1.07392055,0.31115426 C2.72745757,0.354641359 4.3830491,0.323138894 6.03761337,0.323138894 C31.8264904,0.323138894 57.6153674,0.339232545 83.4042444,0.285472903 C85.0499058,0.282048722 85.9035542,0.603236902 85.6974185,2.38586555 C85.665916,2.65911519 85.7409056,2.9580462 85.8224011,3.22821408 C86.2384391,4.61021355 85.6830369,4.92386853 84.3321975,4.91907467 C71.2668924,4.87319065 58.2012448,4.89168123 45.1355972,4.89168123 C42.7544217,4.89168123 40.3732462,4.89168123 37.6273955,4.89168123" id="Fill-8"></path>
                    <path d="M62.9752037,95.4904778 C62.1561396,98.7859096 61.3798778,101.872466 60.6292973,104.965187 C60.4957543,105.515453 60.2779763,105.930806 59.6797719,106.021889 C52.1143863,107.172756 44.5329071,108.238019 36.8983531,106.749185 C32.0579308,105.805481 29.8582369,103.092845 29.7770838,98.1633935 C29.7103123,94.1129298 29.7284604,90.0604115 29.7832473,86.0099478 C29.7979713,84.928249 29.5442395,84.3683954 28.3755665,84.5584374 C28.3200948,84.5676827 28.2611989,84.5642585 28.2046999,84.5587798 C26.6374522,84.4125673 24.4980239,85.2843638 23.6515664,84.1917076 C22.8677713,83.1791773 23.5228171,81.1260384 23.3409931,79.5550241 C23.1215031,77.6600823 23.8316783,76.4047775 25.2694919,75.1902205 C29.6681948,71.4742993 33.9607482,67.6320257 38.2580954,63.7976278 C38.9871035,63.1470334 39.6983059,62.8313239 40.6875518,62.8501569 C43.7107613,62.9080256 46.7363676,62.9059711 49.7595771,62.851869 C50.7399201,62.8340633 51.0593962,63.1518273 51.0107728,64.1212129 C50.9392074,65.5443026 51.0532326,66.9769799 50.9727644,68.3990423 C50.9128412,69.4567718 51.2809407,69.7574149 52.3263432,69.7423485 C56.2055978,69.6851647 60.086907,69.7615239 63.9658193,69.6940676 C65.1136048,69.6738649 65.545394,69.9139 65.5193703,71.1688623 C65.4361627,75.1614574 65.4505442,79.1574767 65.5128643,83.1507566 C65.5303276,84.2564247 65.2324239,84.6060335 64.0969655,84.5858309 C60.275237,84.5166624 56.4493995,84.6289755 52.6293832,84.5231684 C51.2134843,84.4841327 50.9035959,84.9724209 50.9669433,86.2629947 C51.0648749,88.2551833 50.9689978,90.2562747 50.9998154,92.2529146 C51.0391935,94.8213928 51.766832,95.6253905 54.358937,95.7377037 C57.1438234,95.8585772 59.9369279,95.951715 62.9752037,95.4904778" id="Fill-10"></path>
                    <path d="M421.033973,101.595108 C418.796613,105.125781 415.419686,106.691659 411.470578,107.015586 C405.927513,107.469975 401.503472,104.596745 399.621542,99.164624 C397.470814,92.9555566 397.394112,86.6067825 399.516762,80.3788821 C401.987308,73.1305756 408.217948,70.6384567 415.406674,72.1663263 C417.790589,72.6727626 419.434195,74.3317784 421.202785,76.3962171 L421.202785,63.115531 C421.202785,60.1293027 421.20484,60.1967591 424.250991,60.1022517 C425.683668,60.0577373 426.130866,60.2635306 426.118197,61.9454883 C426.008281,76.3681388 426.035674,90.792159 426.095597,105.215494 C426.100391,106.347529 425.792215,106.493399 424.810502,106.49648 C421.403784,106.507095 421.412345,106.542022 421.362352,103.153453 C421.355161,102.678176 421.544861,102.147428 421.033973,101.595108 Z M421.197272,87.7581291 C421.197272,85.9364648 421.211311,84.1144581 421.193163,82.2931362 C421.177412,80.7125343 420.748362,79.2575997 419.750556,78.0043495 C417.532029,75.2184358 414.611202,74.1131102 411.13018,74.5859896 C407.777907,75.0414056 405.715522,77.2239786 404.619442,80.2146583 C402.494738,86.0104271 402.369755,91.9486419 404.258533,97.8176882 C405.621015,102.050318 408.969179,104.120578 412.995674,103.625784 C417.165641,103.113527 420.786713,99.4811553 421.188369,95.4433611 C421.442786,92.8844706 421.355127,90.3207862 421.197272,87.7581291 Z" id="Combined-Shape"></path>
                    <path d="M310.259902,77.1895656 C314.109708,72.1584164 319.649348,70.4165355 325.457102,72.1974521 C329.474009,73.4294724 332.107546,76.7235346 332.150349,80.9335651 C332.233556,89.1502299 332.338679,97.372031 332.098301,105.58219 C332.038378,107.629165 329.801703,106.016718 328.632003,106.436523 C327.906761,106.696761 327.32739,106.535482 327.339374,105.359961 C327.414706,97.9421572 327.36711,90.5229841 327.389367,83.1044959 C327.394504,81.4211685 327.019898,79.8354303 326.472372,78.2637312 C326.131323,77.2851002 325.486207,76.6197819 324.594208,76.1516963 C320.582438,74.0454826 314.577109,75.348041 311.849407,78.9126135 C310.731411,80.3733691 310.250656,82.0269061 310.25545,83.8567885 C310.274626,91.0468838 310.254423,98.2373216 310.311607,105.427074 C310.318455,106.26189 310.158546,106.46015 309.33503,106.496104 C305.520835,106.662861 305.52289,106.69094 305.521862,102.973991 C305.517753,89.0499014 305.52289,75.1258117 305.484881,61.2020644 C305.482827,60.3871093 305.633833,60.151868 306.470018,60.1097506 C310.261271,59.9193661 310.259902,59.8899182 310.259902,63.6869925 L310.259902,77.1895656 Z" id="Fill-14"></path>
                    <path d="M436.180564,78.5123267 C434.778019,74.1673834 434.025384,74.980284 438.401145,73.2497029 C442.253349,71.7262848 446.304497,71.0571998 450.444675,72.1823857 C454.947815,73.4065304 456.527732,75.48809 456.529444,80.1504549 C456.531841,86.2499486 456.519172,92.3497847 456.540744,98.4492784 C456.544511,99.4703692 456.623609,100.501732 456.784888,101.509811 C457.159151,103.845445 458.386035,104.380987 460.346721,103.12397 C460.575799,102.977073 460.802137,102.826409 461.262005,102.525423 C461.072305,103.821818 461.841376,105.025076 460.727833,105.861261 C459.225302,106.988843 457.534784,107.711346 455.623748,106.988501 C453.153202,106.054042 451.769833,104.301889 451.984871,101.475227 C450.896324,102.506933 449.903654,103.419135 448.943171,104.363866 C445.799773,107.456587 441.945515,107.799005 437.972438,106.870024 C434.532848,106.066027 432.314321,103.631434 431.575383,100.201774 C430.736458,96.3112197 431.435334,92.7035026 434.60544,89.9237524 C436.576741,88.194541 438.954835,87.2635062 441.439763,86.5673702 C443.793203,85.9078729 446.152121,85.2678935 448.502822,84.5998358 C450.49501,84.0338186 451.767778,82.8240555 451.980077,80.6637397 C452.197855,78.4469249 451.31921,76.77387 449.470153,75.6113606 C447.578978,74.4224849 445.494679,74.2670271 443.375795,74.7570274 C440.738491,75.3672165 438.325813,76.4780208 436.180564,78.5123267 Z M452.036885,85.3205574 C450.368624,86.2639193 448.795555,86.8539057 447.193038,87.3819144 C445.57477,87.9147169 443.97739,88.5136062 442.3872,89.126877 C441.056221,89.6398193 439.802628,90.318492 438.679497,91.2036428 C436.299006,93.0797516 435.460424,96.7484192 436.699293,99.7575895 C437.900153,102.674649 440.57033,104.16588 443.860968,103.757033 C447.65359,103.286208 450.875745,100.265738 451.698233,96.2262316 C452.418681,92.6897374 451.864306,89.1042774 452.036885,85.3205574 Z" id="Combined-Shape"></path>
                    <path d="M368.869075,89.400743 C369.011178,95.0040729 367.599731,99.7719025 363.575975,103.434064 C356.303015,110.053006 344.283455,107.832767 340.064179,98.9603716 C337.009809,92.5383201 337.106029,85.8765759 340.209364,79.4678787 C343.053831,73.5930113 348.65134,71.0306966 355.995866,71.8299005 C361.674528,72.4476227 366.425236,76.7973599 368.085964,82.9184259 C368.686908,85.1331862 368.98036,87.3880094 368.869075,89.400743 Z M363.728454,89.3794104 C363.833919,85.9192754 363.383639,82.5529631 361.828719,79.4222344 C360.207026,76.1569353 357.802567,73.965117 353.91886,73.8199318 C349.827307,73.6668709 346.954419,75.6580321 345.344369,79.1685025 C342.186247,86.0531609 342.209189,93.0775259 345.47483,99.9409544 C347.044817,103.240838 349.85607,104.988197 353.567539,104.972788 C357.307088,104.957722 359.87899,102.989845 361.590053,99.7926873 C363.330907,96.5400578 363.826043,93.0165755 363.728454,89.3794104 Z" id="Combined-Shape"></path>
                    <path d="M489.844945,100.625482 C490.660585,100.749095 491.055736,101.36579 491.596071,101.747929 C494.826444,104.032543 498.357459,105.065276 502.248014,104.000698 C504.794577,103.303877 506.481671,101.62637 506.908667,98.889765 C507.345592,96.0887849 506.095766,94.1979522 503.754653,92.8262252 C501.138237,91.2932194 498.210562,90.4628555 495.52258,89.0890741 C491.126616,86.8428113 489.319333,83.6367506 490.027112,79.1829183 C490.617783,75.4669971 494.071754,72.4982321 498.447858,71.8116838 C502.227126,71.2193005 505.792384,71.961663 509.336411,73.1933409 C510.666363,73.6552629 511.219368,74.2610005 510.579046,75.6382061 C510.347572,76.1360821 510.243476,76.6925115 510.046244,77.3359151 C508.695747,76.5469838 507.514747,75.653615 506.141992,75.0988976 C503.793347,74.1500571 501.39642,73.8774923 498.955321,74.6116367 C496.579624,75.3262632 494.966835,77.3198214 494.76789,79.5023944 C494.526486,82.1503136 495.756451,83.8528164 498.08284,84.8879464 C500.420871,85.9282126 502.805128,86.8715744 505.106862,87.9861454 C510.574252,90.6340646 512.334281,93.5997477 511.588837,98.6791779 C510.955021,102.999467 507.409282,106.194228 502.153849,106.976653 C498.16502,107.570749 494.339525,106.804417 490.644834,105.232033 C489.289543,104.655401 488.609158,103.914066 489.327894,102.399551 C489.585392,101.856475 489.673736,101.232932 489.844945,100.625482" id="Fill-20"></path>
                    <path d="M474.089501,99.6087061 C477.755771,90.8380088 481.403551,82.4347261 484.738361,73.9092002 C485.586189,71.7413512 486.810676,72.4816591 488.173842,72.41523 C482.328423,86.5108712 476.538817,100.473312 470.747842,114.43541 C470.682441,114.592922 470.561225,114.73982 470.540337,114.901441 C470.25613,117.089835 468.920357,117.497655 466.89016,116.925817 C468.180734,113.920756 469.43056,110.891383 470.788248,107.911318 C471.276878,106.838864 471.262154,105.912966 470.871113,104.819625 C467.02473,94.0704357 463.224232,83.3044681 459.409352,72.5402126 C459.489135,72.4909044 459.578164,72.3885214 459.672329,72.3837275 C464.315518,72.1563619 464.316888,72.1567043 465.857085,76.5132898 C468.340643,83.5379972 470.820435,90.5640743 473.306391,97.5880968 C473.513896,98.1739742 473.754616,98.747867 474.089501,99.6087061" id="Fill-22"></path>
                    <path d="M374.858994,83.3127546 C374.858994,75.8442734 374.877143,68.3757921 374.827834,60.9073109 C374.823383,60.237541 375.005207,60.1204341 375.540406,60.1348156 C375.59759,60.1361853 375.654774,60.1361853 375.711615,60.1320763 C379.714483,59.8324604 379.714483,59.8324604 379.714483,63.8250555 C379.714826,77.6241627 379.705238,91.4229274 379.739137,105.222035 C379.741192,106.1404 379.619976,106.573901 378.5869,106.492406 C377.396655,106.397898 375.873579,106.878311 375.090469,106.300994 C374.304277,105.721623 374.949735,104.128694 374.941175,102.984675 C374.893921,96.4277104 374.918233,89.8700613 374.918233,83.3127546 C374.898372,83.3127546 374.878855,83.3127546 374.858994,83.3127546" id="Fill-24"></path>
                    <path d="M387.399852,89.394511 C387.399852,84.0373798 387.449845,78.6792213 387.368349,73.3234598 C387.345065,71.7853176 388.409301,72.2927813 388.963675,72.3931098 C390.065919,72.5934244 392.121455,71.4946047 392.159806,73.1019152 C392.356354,81.3596702 392.185487,89.6259857 392.161176,97.8892193 C392.153642,100.452904 392.159121,103.0183 392.255683,105.579245 C392.282049,106.276751 392.141315,106.522949 391.477024,106.473299 C391.420183,106.46919 391.362999,106.470902 391.306158,106.474668 C387.471075,106.726346 387.471075,106.726346 387.471075,102.90496 C387.471075,98.4014768 387.471075,93.8979939 387.471075,89.394511 L387.399852,89.394511 Z" id="Fill-26"></path>
                    <path d="M389.7423,68.580969 C387.700118,68.6008293 386.544457,67.6845184 386.571851,66.0676202 C386.598217,64.5017422 387.740524,63.6439848 389.838519,63.6141944 C391.941309,63.5840617 392.978151,64.4219588 392.954867,66.1319948 C392.932267,67.788956 391.921106,68.5597391 389.7423,68.580969" id="Fill-28"></path>
                </g>
            </g>
        </g>
    </g>
</svg>