<?xml version="1.0" encoding="utf-8"?>
<!-- Generator: Adobe Illustrator 19.0.0, SVG Export Plug-In . SVG Version: 6.00 Build 0)  -->
<svg version="1.1" id="Layer_1" xmlns="http://www.w3.org/2000/svg" xmlns:xlink="http://www.w3.org/1999/xlink" x="0px" y="0px"
	 viewBox="0 0 200 200" style="enable-background:new 0 0 200 200;" xml:space="preserve">
<style type="text/css">
	.st0{fill:#F78F1E;}
	.st1{fill:#005288;}
</style>
<g id="XMLID_7_">
	<circle id="XMLID_1_" class="st0" cx="96" cy="97.8" r="51.5"/>
	<polygon id="XMLID_6_" class="st1" points="174.5,86.1 156.4,76 194.9,76 	"/>
	<g id="XMLID_8_">
		<path id="XMLID_9_" class="st1" d="M159.7,100c0,5-0.6,9.7-1.7,14.4l16.2,5.6c1.7-6.4,2.5-13,2.5-20c0-8.6-1.4-19-3.8-24h-18.2
			C157.9,81,159.7,91.2,159.7,100z"/>
		<path id="XMLID_11_" class="st1" d="M47.8,141.1c-9.7-11.2-15.5-25.8-15.5-41.7c0-35.2,28.5-63.3,63.7-63.3
			c20.8,0,39.3,9.8,50.9,25.8h20.3C153.5,36,126.7,19,96,19c-44.6,0-80.8,35.9-80.8,80.5c0,20.6,7.8,39.5,20.5,53.7L47.8,141.1z"/>
	</g>
</g>
<polygon id="XMLID_10_" class="st0" points="64.8,153.8 65.3,161.1 71,164.7 64.1,167 62.4,174.1 58.3,168.7 50.9,168.9 54.7,162.9 
	52.4,156.2 59.5,158.6 "/>
<polygon id="XMLID_12_" class="st0" points="88.1,161.9 90.8,168.7 97.3,170.5 91.5,174.7 92,182.1 86.5,178.1 79.5,180.6 
	81.2,173.7 77.1,168 84.5,168.1 "/>
<polygon id="XMLID_13_" class="st0" points="111,161.6 116.5,166.5 123.1,165.2 119.7,171.6 123.4,178 116.7,176.9 111.5,182.2 
	110.1,175.2 103.8,171.9 110.6,168.7 "/>
<polygon id="XMLID_14_" class="st0" points="132.3,149 138.8,152.4 144.9,149.6 143.2,156.6 148.3,161.8 141.6,162.4 137.8,168.8 
	134.7,162.4 127.9,160.8 133.6,156 "/>
<polygon id="XMLID_15_" class="st0" points="147.4,131.9 154.7,132.8 159.4,128 160.2,135.1 166.9,138.3 160.8,141.2 159.5,148.5 
	154.4,143.6 147.4,144.5 151.1,138 "/>
</svg>
